<svg xmlns="http://www.w3.org/2000/svg" width="410" height="404" viewBox="0 0 410 404" fill="none">
  <g clip-path="url(#clip0_911_50)">
    <path d="M399.641 59.5243L215.643 388.768C211.947 395.409 202.023 395.381 198.376 388.718L10.5817 59.552C6.43806 52.2101 12.5586 43.4187 21.0793 44.7586L205.223 73.8051C206.369 73.9855 207.538 73.9852 208.684 73.8031L388.988 44.7812C397.48 43.4291 403.622 52.1414 399.514 59.5036L399.641 59.5243Z" fill="url(#paint0_linear_911_50)" />
    <path d="M292.965 1.5744L156.801 27.7486C153.049 28.4687 150.148 31.271 149.251 34.99L112.401 190.37C111.213 195.369 115.512 199.872 120.574 198.971L159.922 191.849C165.046 190.936 169.373 195.525 168.309 200.605L153.72 270.632C152.624 275.87 157.371 280.312 162.515 278.782L184.639 272.21C189.795 270.675 194.548 275.137 193.436 280.383L172.299 379.86C170.875 386.6 180.221 390.216 183.71 384.327L185.594 381.155L356.214 64.8137C359.127 59.5413 355.071 53.1663 349.084 54.3059L308.022 62.1472C302.927 63.1113 298.609 58.3264 300.067 53.3311L311.947 11.488C313.405 6.49262 309.093 1.70683 303.996 2.67402Z" fill="url(#paint1_linear_911_50)" />
  </g>
  <defs>
    <linearGradient id="paint0_linear_911_50" x1="6.00017" y1="32.9999" x2="235" y2="344" gradientUnits="userSpaceOnUse">
      <stop stop-color="#41D1FF" />
      <stop offset="1" stop-color="#BD34FE" />
    </linearGradient>
    <linearGradient id="paint1_linear_911_50" x1="194.651" y1="8.81818" x2="236.076" y2="292.989" gradientUnits="userSpaceOnUse">
      <stop stop-color="#FFEA83" />
      <stop offset="0.0833333" stop-color="#FFDD35" />
      <stop offset="1" stop-color="#FFA800" />
    </linearGradient>
    <clipPath id="clip0_911_50">
      <rect width="410" height="404" fill="white" />
    </clipPath>
  </defs>
</svg>
